<?xml version="1.0" standalone="no"?>
<!DOCTYPE svg PUBLIC "-//W3C//DTD SVG 20010904//EN"
 "http://www.w3.org/TR/2001/REC-SVG-20010904/DTD/svg10.dtd">
<svg version="1.0" xmlns="http://www.w3.org/2000/svg"
 width="400.000000pt" height="400.000000pt" viewBox="0 0 400.000000 400.000000"
 preserveAspectRatio="xMidYMid meet">
<metadata>
Created by potrace 1.14, written by Peter Selinger 2001-2017
</metadata>
<g transform="translate(0.000000,400.000000) scale(0.100000,-0.100000)"
fill="#000000" stroke="none">
<path d="M2646 3673 c-152 -55 -277 -148 -401 -298 -58 -70 -63 -78 -135 -202
-63 -108 -95 -150 -156 -204 -46 -39 -81 -56 -184 -84 -428 -118 -887 -432
-1220 -835 -34 -41 -72 -86 -83 -100 -12 -14 -60 -70 -107 -125 -47 -55 -89
-103 -94 -106 -5 -4 -10 -49 -11 -100 -3 -99 -18 -157 -57 -212 -31 -44 -87
-96 -123 -114 -16 -8 -40 -27 -53 -41 -22 -25 -22 -26 -22 -387 l0 -362 48 3
c43 3 61 6 142 21 69 12 153 34 225 60 l81 29 -32 -98 c-33 -97 -77 -284 -88
-368 -4 -25 -9 -69 -12 -97 l-5 -53 158 0 158 0 28 53 c48 87 89 147 97 142 4
-2 10 -28 14 -57 4 -29 12 -72 18 -95 l10 -43 154 0 c85 0 154 3 155 8 0 4 2
14 4 22 1 8 5 33 9 55 10 66 28 135 36 140 9 6 43 -88 62 -167 l13 -58 217 0
218 0 1 23 c0 12 2 30 4 39 2 9 5 34 8 55 6 39 26 104 50 163 l14 32 11 -29
c6 -15 18 -50 28 -77 21 -59 73 -136 117 -176 30 -28 37 -29 125 -30 51 0 91
4 88 8 -7 11 -19 136 -20 217 -3 105 45 322 75 340 6 4 224 -160 259 -195 5
-5 94 -75 116 -91 7 -6 11 29 12 114 2 119 9 215 18 229 3 4 25 -30 49 -77 62
-119 154 -247 250 -350 l47 -50 -7 70 c-6 65 -10 98 -20 165 -2 14 -7 52 -11
85 -3 33 -12 103 -19 155 -13 94 -13 409 0 495 3 22 8 53 10 68 2 16 6 31 8
33 3 3 18 -19 35 -49 57 -101 184 -219 260 -242 l23 -7 -21 41 c-58 115 -88
323 -69 478 11 91 19 146 26 168 3 11 7 29 9 40 12 89 92 301 170 455 72 141
95 179 173 288 112 158 126 189 122 276 -3 61 -34 109 -108 167 -90 70 -182
165 -231 239 -42 62 -82 156 -82 190 0 29 -50 141 -84 185 -70 93 -172 167
-295 213 -110 42 -127 44 -205 15z"/>
</g>
</svg>
